# xmcd
#
# Track frame offsets:
#	150
#	11645
#	24555
#	33847
#	43487
#	55357
#	67561
#	76535
#	86059
#	98356
#	111955
#	123003
#	134405
#	145982
#	156111
#	168025
#	177970
#	190183
#	200611
#	212495
#	223850
#	235129
#	246800
#	256285
#	265190
#	274587
#	286974
#
# Disc length: 4002 seconds
# Revision: 0
# Processed by: cddbd v1.5.2PL0 Copyright (c) Steve Scherf et al.
# Submitted via: dBpowerAMP V12.0
#
DISCID=720fa01b
DTITLE=Elvis Presley - A Boy from Tupelo
DYEAR=2012
DGENRE=Rock and Roll
TTITLE0=My Happiness
TTITLE1=That's When Your Heartaches Begin
TTITLE2=I'll Never Stand in Your Way
TTITLE3=It Wouldn't Be the Same without You
TTITLE4=Harbor Lights
TTITLE5=I Love You Because
TTITLE6=That's All Right
TTITLE7=Blue Moon of Kentucky
TTITLE8=Blue Moon
TTITLE9=Tomorrow Night
TTITLE10=I'll Never Let You Go (Little Darlin')
TTITLE11=I Don't Care if the Sun Don't Shine
TTITLE12=Just Because
TTITLE13=Good Rockin' Tonight
TTITLE14=Milkcow Blues Boogie
TTITLE15=You're a Heartbreaker
TTITLE16=I'm Left, You're Right, She's Gone (slow version)
TTITLE17=Baby Let's Play House
TTITLE18=I'm Left, You're Right, She's Gone
TTITLE19=I Forgot to Remember to Forget
TTITLE20=Mystery Train
TTITLE21=Tryin' to Get to You
TTITLE22=When It Rains It Pours
TTITLE23=That's All Right (RCA single master)
TTITLE24=Blue Moon of Kentucky (RCA single master)
TTITLE25=I Love You Because (RCA LP version)
TTITLE26=Tomorrow Night (LP version)
EXTD=
EXTT0=
EXTT1=
EXTT2=
EXTT3=
EXTT4=
EXTT5=
EXTT6=
EXTT7=
EXTT8=
EXTT9=
EXTT10=
EXTT11=
EXTT12=
EXTT13=
EXTT14=
EXTT15=
EXTT16=
EXTT17=
EXTT18=
EXTT19=
EXTT20=
EXTT21=
EXTT22=
EXTT23=
EXTT24=
EXTT25=
EXTT26=
PLAYORDER=
